<svg width="32" height="51" viewBox="0 0 32 51" fill="none" xmlns="http://www.w3.org/2000/svg">
<circle cx="16" cy="16" r="16" fill="#D6D4D2"/>
<path d="M16 51L5.6077 24.75H26.3923L16 51Z" fill="#D6D4D2"/>
<g clip-path="url(#clip0_4_12)">
<path d="M15.9844 1.98633C15.7195 1.99047 15.4671 2.09953 15.2826 2.28957C15.098 2.47962 14.9964 2.73512 15 3V6C14.9981 6.13251 15.0226 6.26407 15.072 6.38704C15.1215 6.51001 15.1948 6.62193 15.2879 6.7163C15.3809 6.81067 15.4918 6.88561 15.614 6.93676C15.7363 6.9879 15.8675 7.01424 16 7.01424C16.1325 7.01424 16.2638 6.9879 16.386 6.93676C16.5083 6.88561 16.6191 6.81067 16.7122 6.7163C16.8052 6.62193 16.8786 6.51001 16.928 6.38704C16.9774 6.26407 17.0019 6.13251 17 6V3C17.0019 2.86621 16.9768 2.73341 16.9264 2.60947C16.876 2.48553 16.8012 2.37297 16.7065 2.27845C16.6118 2.18393 16.4991 2.10937 16.3751 2.05919C16.251 2.00902 16.1182 1.98424 15.9844 1.98633ZM6.7969 5.79883C6.59813 5.79927 6.404 5.85893 6.23929 5.97019C6.07458 6.08145 5.94676 6.23927 5.87215 6.4235C5.79753 6.60773 5.77951 6.81002 5.82037 7.00454C5.86124 7.19906 5.95914 7.37699 6.10158 7.51562L8.22268 9.63672C8.31482 9.73269 8.42519 9.80931 8.54732 9.86209C8.66945 9.91488 8.80088 9.94276 8.93392 9.94411C9.06696 9.94547 9.19893 9.92026 9.32211 9.86997C9.44528 9.81968 9.55719 9.74532 9.65126 9.65124C9.74534 9.55717 9.8197 9.44526 9.86999 9.32209C9.92028 9.19891 9.94549 9.06694 9.94414 8.9339C9.94278 8.80086 9.9149 8.66943 9.86212 8.5473C9.80933 8.42517 9.73271 8.3148 9.63674 8.22266L7.51565 6.10156C7.42223 6.00553 7.31047 5.92925 7.187 5.87725C7.06353 5.82524 6.93087 5.79857 6.7969 5.79883V5.79883ZM25.1719 5.79883C24.9121 5.80657 24.6655 5.91515 24.4844 6.10156L22.3633 8.22266C22.2673 8.3148 22.1907 8.42517 22.1379 8.5473C22.0851 8.66943 22.0573 8.80086 22.0559 8.9339C22.0546 9.06694 22.0798 9.19891 22.1301 9.32208C22.1803 9.44526 22.2547 9.55716 22.3488 9.65124C22.4429 9.74532 22.5548 9.81968 22.6779 9.86997C22.8011 9.92026 22.9331 9.94546 23.0661 9.94411C23.1992 9.94276 23.3306 9.91487 23.4527 9.86209C23.5749 9.80931 23.6852 9.73269 23.7774 9.63672L25.8985 7.51562C26.043 7.37516 26.1417 7.19432 26.1816 6.9968C26.2216 6.79928 26.2009 6.5943 26.1224 6.40871C26.0439 6.22313 25.9111 6.0656 25.7415 5.95677C25.5719 5.84794 25.3733 5.79289 25.1719 5.79883ZM16 9C14.1435 9 12.363 9.7375 11.0503 11.0503C9.73752 12.363 9.00002 14.1435 9.00002 16C9.00002 17.8565 9.73752 19.637 11.0503 20.9497C12.363 22.2625 14.1435 23 16 23C17.8565 23 19.637 22.2625 20.9498 20.9497C22.2625 19.637 23 17.8565 23 16C23 14.1435 22.2625 12.363 20.9498 11.0503C19.637 9.7375 17.8565 9 16 9V9ZM3.00002 15C2.86751 14.9981 2.73595 15.0226 2.61298 15.072C2.49001 15.1214 2.37809 15.1948 2.28372 15.2878C2.18935 15.3809 2.11441 15.4918 2.06327 15.614C2.01212 15.7363 1.98578 15.8675 1.98578 16C1.98578 16.1325 2.01212 16.2637 2.06327 16.386C2.11441 16.5082 2.18935 16.6191 2.28372 16.7122C2.37809 16.8052 2.49001 16.8786 2.61298 16.928C2.73595 16.9774 2.86751 17.0019 3.00002 17H6.00002C6.13253 17.0019 6.2641 16.9774 6.38706 16.928C6.51003 16.8786 6.62195 16.8052 6.71632 16.7122C6.81069 16.6191 6.88563 16.5082 6.93678 16.386C6.98792 16.2637 7.01426 16.1325 7.01426 16C7.01426 15.8675 6.98792 15.7363 6.93678 15.614C6.88563 15.4918 6.81069 15.3809 6.71632 15.2878C6.62195 15.1948 6.51003 15.1214 6.38706 15.072C6.2641 15.0226 6.13253 14.9981 6.00002 15H3.00002ZM26 15C25.8675 14.9981 25.7359 15.0226 25.613 15.072C25.49 15.1214 25.3781 15.1948 25.2837 15.2878C25.1893 15.3809 25.1144 15.4918 25.0633 15.614C25.0121 15.7363 24.9858 15.8675 24.9858 16C24.9858 16.1325 25.0121 16.2637 25.0633 16.386C25.1144 16.5082 25.1893 16.6191 25.2837 16.7122C25.3781 16.8052 25.49 16.8786 25.613 16.928C25.7359 16.9774 25.8675 17.0019 26 17H29C29.1325 17.0019 29.2641 16.9774 29.3871 16.928C29.51 16.8786 29.622 16.8052 29.7163 16.7122C29.8107 16.6191 29.8856 16.5082 29.9368 16.386C29.9879 16.2637 30.0143 16.1325 30.0143 16C30.0143 15.8675 29.9879 15.7363 29.9368 15.614C29.8856 15.4918 29.8107 15.3809 29.7163 15.2878C29.622 15.1948 29.51 15.1214 29.3871 15.072C29.2641 15.0226 29.1325 14.9981 29 15H26ZM8.91018 22.0605C8.65038 22.0683 8.4038 22.1769 8.22268 22.3633L6.10158 24.4844C6.00561 24.5765 5.92899 24.6869 5.87621 24.809C5.82343 24.9311 5.79554 25.0626 5.79419 25.1956C5.79284 25.3287 5.81805 25.4606 5.86834 25.5838C5.91862 25.707 5.99299 25.8189 6.08706 25.913C6.18114 26.007 6.29304 26.0814 6.41622 26.1317C6.53939 26.182 6.67137 26.2072 6.80441 26.2058C6.93744 26.2045 7.06888 26.1766 7.191 26.1238C7.31313 26.071 7.4235 25.9944 7.51565 25.8984L9.63674 23.7773C9.78124 23.6369 9.87994 23.456 9.9199 23.2585C9.95986 23.061 9.93922 22.856 9.86068 22.6704C9.78213 22.4848 9.64936 22.3273 9.47975 22.2185C9.31014 22.1097 9.11161 22.0546 8.91018 22.0605ZM23.0606 22.0605C22.8616 22.0606 22.6672 22.12 22.5022 22.2311C22.3372 22.3422 22.2091 22.5 22.1342 22.6843C22.0594 22.8686 22.0412 23.0711 22.082 23.2658C22.1228 23.4605 22.2207 23.6386 22.3633 23.7773L24.4844 25.8984C24.5765 25.9944 24.6869 26.071 24.809 26.1238C24.9312 26.1766 25.0626 26.2045 25.1956 26.2058C25.3287 26.2072 25.4606 26.182 25.5838 26.1317C25.707 26.0814 25.8189 26.007 25.913 25.913C26.0071 25.8189 26.0814 25.707 26.1317 25.5838C26.182 25.4606 26.2072 25.3287 26.2058 25.1956C26.2045 25.0626 26.1766 24.9311 26.1238 24.809C26.071 24.6869 25.9944 24.5765 25.8985 24.4844L23.7774 22.3633C23.6842 22.2675 23.5727 22.1913 23.4496 22.1393C23.3265 22.0873 23.1942 22.0606 23.0606 22.0605V22.0605ZM15.9844 24.9863C15.7195 24.9905 15.4671 25.0995 15.2826 25.2896C15.098 25.4796 14.9964 25.7351 15 26V29C14.9981 29.1325 15.0226 29.2641 15.072 29.387C15.1215 29.51 15.1948 29.6219 15.2879 29.7163C15.3809 29.8107 15.4918 29.8856 15.614 29.9368C15.7363 29.9879 15.8675 30.0142 16 30.0142C16.1325 30.0142 16.2638 29.9879 16.386 29.9368C16.5083 29.8856 16.6191 29.8107 16.7122 29.7163C16.8052 29.6219 16.8786 29.51 16.928 29.387C16.9774 29.2641 17.0019 29.1325 17 29V26C17.0019 25.8662 16.9768 25.7334 16.9264 25.6095C16.876 25.4855 16.8012 25.373 16.7065 25.2784C16.6118 25.1839 16.4991 25.1094 16.3751 25.0592C16.251 25.009 16.1182 24.9842 15.9844 24.9863V24.9863Z" fill="#FFDF00"/>
</g>
<defs>
<clipPath id="clip0_4_12">
<rect width="30" height="30" fill="white" transform="translate(1 1)"/>
</clipPath>
</defs>
</svg>
